{"title":"Couples.Retreat.2009.DVDRip.XviD-Emery","uid":5314067,"size":738968740,"categoryP":"video","categoryS":"movies","magnet":"?xt=urn:btih:42c50ea00cd87ba079e8d58ca14501163fec8971&amp;dn=Couples.Retreat.2009.DVDRip.XviD-Emery&amp;tr=udp%3A%2F%2Ftracker.openbittorrent.com%3A80&amp;tr=udp%3A%2F%2Fopen.demonii.com%3A1337&amp;tr=udp%3A%2F%2Ftracker.coppersurfer.tk%3A6969&amp;tr=udp%3A%2F%2Fexodus.desync.com%3A6969","seeders":2,"leechers":0,"uploader":"Emery2010","files":-1,"time":1264651259,"description":"General\nComplete name                    : C:UsersJordonEmeryCouples.Retreat.2009.DVDRip.XviD-EmeryCouples.Retreat.2009.DVDRip.XviD-Emery.avi\nFormat                           : AVI\nFormat/Info                      : Audio Video Interleave\nFile size                        : 705 MiB\nDuration                         : 1h 53mn\nOverall bit rate                 : 867 Kbps\nWriting application              : VirtualDubMod 1.5.10.2 (build 2540/release)\nWriting library                  : VirtualDubMod build 2540/release\n\nVideo\nID                               : 0\nFormat                           : MPEG-4 Visual\nFormat profile                   : AdvancedSimple@L5\nFormat settings, BVOP            : Yes\nFormat settings, QPel            : No\nFormat settings, GMC             : No warppoints\nFormat settings, Matrix          : Default (H.263)\nMuxing mode                      : Packed bitstream\nCodec ID                         : XVID\nCodec ID/Hint                    : XviD\nDuration                         : 1h 53mn\nBit rate                         : 729 Kbps\nWidth                            : 624 pixels\nHeight                           : 336 pixels\nDisplay aspect ratio             : 1.857\nFrame rate                       : 23.976 fps\nResolution                       : 24 bits\nColorimetry                      : 4:2:0\nScan type                        : Progressive\nBits/(Pixel*Frame)               : 0.145\nStream size                      : 593 MiB (84%)\nWriting library                  : XviD 1.2.1 (UTC 2008-12-04)\n\nAudio\nID                               : 1\nFormat                           : MPEG Audio\nFormat version                   : Version 1\nFormat profile                   : Layer 3\nCodec ID                         : 55\nCodec ID/Hint                    : MP3\nDuration                         : 1h 53mn\nBit rate mode                    : Constant\nBit rate                         : 128 Kbps\nChannel(s)                       : 2 channels\nSampling rate                    : 48.0 KHz\nResolution                       : 16 bits\nStream size                      : 104 MiB (15%)\nAlignment                        : Aligned on interleaves\nInterleave, duration             : 42 ms (1.00 video frame)\nInterleave, preload duration     : 504 ms\n\nIMDB Link: http://www.imdb.com/title/tt1078940/","torrent":{"xt":"urn:btih:42c50ea00cd87ba079e8d58ca14501163fec8971","amp;dn":"Couples.Retreat.2009.DVDRip.XviD-Emery","amp;tr":["udp%3A%2F%2Ftracker.openbittorrent.com%3A80","udp%3A%2F%2Fopen.demonii.com%3A1337","udp%3A%2F%2Ftracker.coppersurfer.tk%3A6969","udp%3A%2F%2Fexodus.desync.com%3A6969"],"infoHash":"42c50ea00cd87ba079e8d58ca14501163fec8971","infoHashBuffer":{"type":"Buffer","data":[66,197,14,160,12,216,123,160,121,232,213,140,161,69,1,22,63,236,137,113]},"announce":[],"urlList":[]}}